# xmcd
#
# Track frame offsets:
#	150
#	21710
#	38045
#	58210
#	71685
#	92290
#	115767
#	133532
#	151655
#	167212
#	184130
#
# Disc length: 2639 seconds
#
# Revision: 0
# Processed by: cddbd v1.4PL0 Copyright (c) Steve Scherf et al.
# Submitted via: EasyCDDAExtractor 4.6.9.1
#
DISCID=900a4d0b
DTITLE=Louisiana Red - A Different Shade of Red
DYEAR=2002
DGENRE=Blues
TTITLE0=Take Your Time
TTITLE1=Lou Jean
TTITLE2=Alabama Train
TTITLE3=I Had A Dream
TTITLE4=Blue Evening
TTITLE5=Blues 2001
TTITLE6=Laundromat Blues
TTITLE7=Lightning Bug
TTITLE8=Where's My Friends?
TTITLE9=Phillipa
TTITLE10=Sleep Little Robert
EXTD=
EXTT0=
EXTT1=
EXTT2=
EXTT3=
EXTT4=
EXTT5=
EXTT6=
EXTT7=
EXTT8=
EXTT9=
EXTT10=
PLAYORDER=
